<svg width="214" height="153" viewBox="0 0 214 153" fill="none" xmlns="http://www.w3.org/2000/svg">
<path d="M212.26 152.92H183C182.832 152.918 182.667 152.878 182.518 152.802C182.369 152.725 182.239 152.615 182.14 152.48L136 88.36C135.908 88.2312 135.787 88.1247 135.648 88.0485C135.509 87.9723 135.355 87.9283 135.197 87.9196C135.038 87.911 134.88 87.938 134.733 87.9986C134.587 88.0593 134.456 88.152 134.35 88.27L116 108.45V73.83L180 1.33001C180.1 1.21586 180.223 1.12459 180.361 1.06245C180.499 1.00031 180.649 0.968777 180.8 0.970005H210.24C210.441 0.976728 210.636 1.04038 210.802 1.15355C210.968 1.26672 211.098 1.42473 211.178 1.60919C211.257 1.79364 211.283 1.99694 211.251 2.19538C211.22 2.39382 211.133 2.57923 211 2.73001L154 67.26C153.841 67.4396 153.747 67.6679 153.734 67.9078C153.721 68.1476 153.79 68.3846 153.93 68.58L213.06 151.24C213.172 151.394 213.24 151.576 213.257 151.765C213.274 151.955 213.24 152.145 213.158 152.317C213.077 152.489 212.95 152.636 212.792 152.742C212.634 152.848 212.45 152.909 212.26 152.92Z" fill="white"/>
<path d="M92 2.91998V152.92H116V2.91998H92Z" fill="white"/>
<path d="M58 47.33V152.92H76V47.33H58Z" fill="#009ADE"/>
<path d="M28 100.12V152.92H46V100.12H28Z" fill="#3BD4AE"/>
<path d="M0 80.11V152.92H18V80.11H0Z" fill="#F0DF00"/>
</svg>
